{
	"asset":{
		"generator":"Khronos glTF Blender I/O v4.0.44",
		"version":"2.0"
	},
	"scene":0,
	"scenes":[
		{
			"extras":{
				"fast64":{
					"settings":{
						"internal_game_update_ver":1
					},
					"sm64":{
						"address_converter":{
							"version":1
						},
						"combined_export":{},
						"version":4
					},
					"renderSettings":{}
				},
				"opLargeTextureProperty":{
					"mat":{}
				},
				"gameEditorMode":2,
				"f3d_type":10,
				"f3d_lib_dir":"C:\\Users\\Kenzie\\AppData\\Roaming\\Blender Foundation\\Blender\\4.0\\scripts\\addons\\fast64\\fast64_internal\\f3d\\f3d_material_library.blend\\NodeTree",
				"ootPreviewSettingsProperty":{
					"ootCSPreviewCSObj":{}
				}
			},
			"name":"Scene",
			"nodes":[
				0
			]
		}
	],
	"nodes":[
		{
			"mesh":0,
			"name":"Plane"
		}
	],
	"materials":[
		{
			"extras":{
				"rdp_settings":{},
				"combiner1":{},
				"UVanim":{
					"x":{},
					"y":{}
				},
				"tex0":{
					"tile_scroll":{}
				},
				"ootCollisionProperty":{},
				"f3d_mat":{
					"name":"",
					"combiner1":{
						"name":"",
						"A":8,
						"B":8,
						"C":16,
						"D":4,
						"A_alpha":7,
						"B_alpha":7,
						"C_alpha":7,
						"D_alpha":6
					},
					"combiner2":{
						"name":"",
						"A":0,
						"B":8,
						"C":3,
						"D":7,
						"A_alpha":7,
						"B_alpha":7,
						"C_alpha":7,
						"D_alpha":0
					},
					"tex0":{
						"tex_set":1,
						"name":""
					},
					"tex1":{
						"tex_set":1,
						"name":""
					},
					"set_prim":1,
					"set_lights":0,
					"set_env":1,
					"set_blend":0,
					"set_key":1,
					"set_k0_5":1,
					"set_combiner":1,
					"use_default_lighting":1,
					"blend_color":[
						0.0,
						0.0,
						0.0,
						1.0
					],
					"prim_color":[
						1.0,
						1.0,
						1.0,
						1.0
					],
					"env_color":[
						1.0,
						1.0,
						1.0,
						1.0
					],
					"key_center":[
						0.5,
						0.5,
						0.5,
						1.0
					],
					"key_scale":[
						0.0,
						0.0,
						0.0
					],
					"key_width":[
						0.0,
						0.0,
						0.0
					],
					"k0":0.686274528503418,
					"k1":-0.16862745583057404,
					"k2":-0.3490196168422699,
					"k3":0.8705882430076599,
					"k4":0.4470588266849518,
					"k5":0.16470588743686676,
					"prim_lod_frac":0.0,
					"prim_lod_min":0.0,
					"default_light_color":[
						1.0,
						1.0,
						1.0,
						1.0
					],
					"ambient_light_color":[
						0.2140410989522934,
						0.2140410989522934,
						0.2140410989522934,
						1.0
					],
					"f3d_light1":null,
					"f3d_light2":null,
					"f3d_light3":null,
					"f3d_light4":null,
					"f3d_light5":null,
					"f3d_light6":null,
					"f3d_light7":null,
					"set_ao":0,
					"set_fresnel":0,
					"set_attroffs_st":0,
					"set_attroffs_z":0,
					"fog_color":[
						0.0,
						0.0,
						0.0,
						1.0
					],
					"fog_position":[
						985,
						1000
					],
					"set_fog":0,
					"use_global_fog":1,
					"rdp_settings":{
						"name":"",
						"g_zbuffer":1,
						"g_shade":1,
						"g_ambocclusion":0,
						"g_attroffset_z_enable":0,
						"g_attroffset_st_enable":0,
						"g_cull_front":0,
						"g_cull_back":1,
						"g_packed_normals":0,
						"g_lighttoalpha":0,
						"g_lighting_specular":0,
						"g_fresnel_color":0,
						"g_fresnel_alpha":0,
						"g_fog":1,
						"g_lighting":1,
						"g_tex_gen":0,
						"g_tex_gen_linear":0,
						"g_lod":0,
						"g_shade_smooth":1,
						"g_clipping":0,
						"g_mdsft_alpha_dither":2,
						"g_mdsft_rgb_dither":0,
						"g_mdsft_combkey":0,
						"g_mdsft_textconv":2,
						"g_mdsft_text_filt":2,
						"g_mdsft_textlut":0,
						"g_mdsft_textlod":0,
						"g_mdsft_textdetail":0,
						"g_mdsft_textpersp":1,
						"g_mdsft_cycletype":1,
						"g_mdsft_color_dither":1,
						"g_mdsft_pipeline":1,
						"g_mdsft_alpha_compare":0,
						"g_mdsft_zsrcsel":0,
						"clip_ratio":1,
						"set_rendermode":1,
						"rendermode_advanced_enabled":0,
						"rendermode_preset_cycle_1":8,
						"rendermode_preset_cycle_2":1,
						"aa_en":1,
						"z_cmp":1,
						"z_upd":1,
						"im_rd":1,
						"clr_on_cvg":0,
						"cvg_dst":0,
						"zmode":0,
						"cvg_x_alpha":0,
						"alpha_cvg_sel":1,
						"force_bl":0,
						"blend_p1":3,
						"blend_p2":0,
						"blend_a1":2,
						"blend_a2":0,
						"blend_m1":0,
						"blend_m2":1,
						"blend_b1":0,
						"blend_b2":1
					},
					"draw_layer":{
						"sm64":1,
						"oot":0,
						"name":""
					},
					"presetName":"Shaded Solid"
				},
				"ootMaterial":{},
				"objex_bonus":{},
				"is_f3d":1,
				"mat_ver":6,
				"f3d_update_flag":0
			},
			"name":"f3dlite_material",
			"pbrMetallicRoughness":{}
		}
	],
	"meshes":[
		{
			"name":"Plane",
			"primitives":[
				{
					"attributes":{
						"COLOR_0":0,
						"POSITION":1,
						"NORMAL":2,
						"TEXCOORD_0":3
					},
					"indices":4,
					"material":0
				}
			]
		}
	],
	"accessors":[
		{
			"bufferView":0,
			"componentType":5123,
			"count":308,
			"normalized":true,
			"type":"VEC4"
		},
		{
			"bufferView":1,
			"componentType":5126,
			"count":308,
			"max":[
				18,
				2.6461100578308105,
				18
			],
			"min":[
				-18,
				-2.8781702518463135,
				-18
			],
			"type":"VEC3"
		},
		{
			"bufferView":2,
			"componentType":5126,
			"count":308,
			"type":"VEC3"
		},
		{
			"bufferView":3,
			"componentType":5126,
			"count":308,
			"type":"VEC2"
		},
		{
			"bufferView":4,
			"componentType":5123,
			"count":720,
			"type":"SCALAR"
		}
	],
	"bufferViews":[
		{
			"buffer":0,
			"byteLength":2464,
			"byteOffset":0,
			"target":34962
		},
		{
			"buffer":0,
			"byteLength":3696,
			"byteOffset":2464,
			"target":34962
		},
		{
			"buffer":0,
			"byteLength":3696,
			"byteOffset":6160,
			"target":34962
		},
		{
			"buffer":0,
			"byteLength":2464,
			"byteOffset":9856,
			"target":34962
		},
		{
			"buffer":0,
			"byteLength":1440,
			"byteOffset":12320,
			"target":34963
		}
	],
	"buffers":[
		{
			"byteLength":13760,
			"uri":"TestScene01.bin"
		}
	]
}
