{
	"asset":{
		"generator":"Khronos glTF Blender I/O v4.0.44",
		"version":"2.0"
	},
	"scene":0,
	"scenes":[
		{
			"extras":{
				"uuid":"1baddc6d-9e30-4e59-b910-6294e2e94547",
				"assets reported":{},
				"fast64":{
					"settings":{
						"internal_fixed_4_2":1,
						"internal_game_update_ver":1
					},
					"sm64":{
						"address_converter":{
							"version":1
						},
						"combined_export":{},
						"version":4
					},
					"renderSettings":{
						"sm64Area":{},
						"useWorldSpaceLighting":1,
						"light0Direction":[
							-0.14569535851478577,
							-0.6688741445541382,
							0.7289583086967468
						]
					}
				},
				"f3d_lib_dir":"C:\\Users\\Kenzie\\AppData\\Roaming\\Blender Foundation\\Blender\\4.0\\scripts\\addons\\fast64\\fast64_internal\\f3d\\f3d_material_library.blend\\NodeTree",
				"f3d_simple":0,
				"f3dUserPresetsOnly":0,
				"opLargeTextureProperty":{
					"mat":{}
				},
				"ootPreviewSettingsProperty":{
					"ootCSPreviewCSObj":{}
				}
			},
			"name":"Scene",
			"nodes":[
				2
			]
		}
	],
	"nodes":[
		{
			"name":"Bone"
		},
		{
			"extras":{
				"fast64":{
					"sm64":{
						"geo_asm":{},
						"game_object":{},
						"version":3
					}
				},
				"ant_landscape":{}
			},
			"mesh":0,
			"name":"QMARK",
			"skin":0
		},
		{
			"children":[
				1,
				0
			],
			"name":"SKELETON"
		}
	],
	"animations":[
		{
			"channels":[
				{
					"sampler":0,
					"target":{
						"node":0,
						"path":"translation"
					}
				},
				{
					"sampler":1,
					"target":{
						"node":0,
						"path":"rotation"
					}
				},
				{
					"sampler":2,
					"target":{
						"node":0,
						"path":"scale"
					}
				}
			],
			"name":"SPIN",
			"samplers":[
				{
					"input":8,
					"interpolation":"STEP",
					"output":9
				},
				{
					"input":10,
					"interpolation":"LINEAR",
					"output":11
				},
				{
					"input":8,
					"interpolation":"STEP",
					"output":12
				}
			]
		}
	],
	"materials":[
		{
			"alphaMode":"BLEND",
			"extras":{
				"rdp_settings":{},
				"combiner1":{},
				"UVanim":{
					"x":{},
					"y":{}
				},
				"tex0":{
					"tile_scroll":{}
				},
				"ootCollisionProperty":{},
				"f3d_mat":{
					"name":"",
					"combiner1":{
						"name":"",
						"A":8,
						"B":8,
						"C":16,
						"D":4,
						"A_alpha":7,
						"B_alpha":7,
						"C_alpha":7,
						"D_alpha":6
					},
					"combiner2":{
						"name":"",
						"A":8,
						"B":8,
						"C":16,
						"D":1,
						"A_alpha":7,
						"B_alpha":7,
						"C_alpha":7,
						"D_alpha":5
					},
					"tex0":{
						"tex_set":1,
						"tex":{},
						"tile_scroll":{}
					},
					"tex1":{
						"tex_set":1,
						"tex":{}
					},
					"set_prim":1,
					"set_lights":1,
					"set_env":0,
					"set_blend":0,
					"set_key":1,
					"set_k0_5":1,
					"set_combiner":1,
					"use_default_lighting":1,
					"blend_color":[
						0.0,
						0.0,
						0.0,
						1.0
					],
					"prim_color":[
						1.0,
						1.0,
						1.0,
						1.0
					],
					"env_color":[
						1.0,
						1.0,
						1.0,
						1.0
					],
					"key_center":[
						1.0,
						1.0,
						1.0,
						1.0
					],
					"key_scale":[
						0.0,
						0.0,
						0.0
					],
					"key_width":[
						0.0,
						0.0,
						0.0
					],
					"k0":0.686274528503418,
					"k1":-0.16862745583057404,
					"k2":-0.3490196168422699,
					"k3":0.8705882430076599,
					"k4":0.4470588266849518,
					"k5":0.16470588743686676,
					"prim_lod_frac":0.0,
					"prim_lod_min":0.0,
					"default_light_color":[
						1.0,
						1.0,
						1.0,
						1.0
					],
					"ambient_light_color":[
						0.2140410989522934,
						0.2140410989522934,
						0.2140410989522934,
						1.0
					],
					"f3d_light1":null,
					"f3d_light2":null,
					"f3d_light3":null,
					"f3d_light4":null,
					"f3d_light5":null,
					"f3d_light6":null,
					"f3d_light7":null,
					"set_ao":0,
					"set_fresnel":0,
					"set_attroffs_st":0,
					"set_attroffs_z":0,
					"fog_color":[
						0.0,
						0.0,
						0.0,
						1.0
					],
					"fog_position":[
						985,
						1000
					],
					"set_fog":0,
					"use_global_fog":1,
					"rdp_settings":{
						"name":"",
						"g_zbuffer":1,
						"g_shade":1,
						"g_ambocclusion":0,
						"g_attroffset_z_enable":0,
						"g_attroffset_st_enable":0,
						"g_cull_front":0,
						"g_cull_back":1,
						"g_packed_normals":0,
						"g_lighttoalpha":0,
						"g_lighting_specular":0,
						"g_fresnel_color":0,
						"g_fresnel_alpha":0,
						"g_fog":0,
						"g_lighting":0,
						"g_tex_gen":0,
						"g_tex_gen_linear":0,
						"g_lod":0,
						"g_shade_smooth":1,
						"g_clipping":0,
						"g_mdsft_alpha_dither":2,
						"g_mdsft_rgb_dither":0,
						"g_mdsft_combkey":0,
						"g_mdsft_textconv":2,
						"g_mdsft_text_filt":2,
						"g_mdsft_textlut":0,
						"g_mdsft_textlod":0,
						"g_mdsft_textdetail":0,
						"g_mdsft_textpersp":1,
						"g_mdsft_cycletype":0,
						"g_mdsft_color_dither":1,
						"g_mdsft_pipeline":0,
						"g_mdsft_alpha_compare":0,
						"g_mdsft_zsrcsel":0,
						"clip_ratio":1,
						"set_rendermode":0,
						"rendermode_advanced_enabled":0,
						"rendermode_preset_cycle_1":1,
						"rendermode_preset_cycle_2":1,
						"aa_en":1,
						"z_cmp":1,
						"z_upd":1,
						"im_rd":1,
						"clr_on_cvg":0,
						"cvg_dst":0,
						"zmode":0,
						"cvg_x_alpha":0,
						"alpha_cvg_sel":1,
						"force_bl":0,
						"blend_p1":0,
						"blend_p2":0,
						"blend_a1":0,
						"blend_a2":0,
						"blend_m1":1,
						"blend_m2":1,
						"blend_b1":1,
						"blend_b2":1
					},
					"draw_layer":{
						"sm64":1,
						"oot":0
					},
					"presetName":"Custom",
					"UVanim0":{
						"x":{},
						"y":{}
					}
				},
				"ootMaterial":{},
				"objex_bonus":{},
				"is_f3d":1,
				"mat_ver":6,
				"f3d_update_flag":0,
				"collision_all_options":0,
				"menu_tab":0
			},
			"name":"NULLMODEL",
			"pbrMetallicRoughness":{}
		}
	],
	"meshes":[
		{
			"name":"Cube",
			"primitives":[
				{
					"attributes":{
						"COLOR_0":0,
						"POSITION":1,
						"NORMAL":2,
						"TEXCOORD_0":3,
						"JOINTS_0":4,
						"WEIGHTS_0":5
					},
					"indices":6,
					"material":0
				}
			]
		}
	],
	"skins":[
		{
			"inverseBindMatrices":7,
			"joints":[
				0
			],
			"name":"SKELETON"
		}
	],
	"accessors":[
		{
			"bufferView":0,
			"componentType":5126,
			"count":97,
			"type":"VEC4"
		},
		{
			"bufferView":1,
			"componentType":5126,
			"count":97,
			"max":[
				0.2912379503250122,
				0.9378436207771301,
				0.08119337260723114
			],
			"min":[
				-0.27321213483810425,
				0.027943702414631844,
				-0.08119329810142517
			],
			"type":"VEC3"
		},
		{
			"bufferView":2,
			"componentType":5126,
			"count":97,
			"type":"VEC3"
		},
		{
			"bufferView":3,
			"componentType":5126,
			"count":97,
			"type":"VEC2"
		},
		{
			"bufferView":4,
			"componentType":5121,
			"count":97,
			"type":"VEC4"
		},
		{
			"bufferView":5,
			"componentType":5126,
			"count":97,
			"type":"VEC4"
		},
		{
			"bufferView":6,
			"componentType":5123,
			"count":216,
			"type":"SCALAR"
		},
		{
			"bufferView":7,
			"componentType":5126,
			"count":1,
			"type":"MAT4"
		},
		{
			"bufferView":8,
			"componentType":5126,
			"count":2,
			"max":[
				0.6833333333333333
			],
			"min":[
				0.016666666666666666
			],
			"type":"SCALAR"
		},
		{
			"bufferView":9,
			"componentType":5126,
			"count":2,
			"type":"VEC3"
		},
		{
			"bufferView":10,
			"componentType":5126,
			"count":41,
			"max":[
				0.6833333333333333
			],
			"min":[
				0.016666666666666666
			],
			"type":"SCALAR"
		},
		{
			"bufferView":11,
			"componentType":5126,
			"count":41,
			"type":"VEC4"
		},
		{
			"bufferView":12,
			"componentType":5126,
			"count":2,
			"type":"VEC3"
		}
	],
	"bufferViews":[
		{
			"buffer":0,
			"byteLength":1552,
			"byteOffset":0,
			"target":34962
		},
		{
			"buffer":0,
			"byteLength":1164,
			"byteOffset":1552,
			"target":34962
		},
		{
			"buffer":0,
			"byteLength":1164,
			"byteOffset":2716,
			"target":34962
		},
		{
			"buffer":0,
			"byteLength":776,
			"byteOffset":3880,
			"target":34962
		},
		{
			"buffer":0,
			"byteLength":388,
			"byteOffset":4656,
			"target":34962
		},
		{
			"buffer":0,
			"byteLength":1552,
			"byteOffset":5044,
			"target":34962
		},
		{
			"buffer":0,
			"byteLength":432,
			"byteOffset":6596,
			"target":34963
		},
		{
			"buffer":0,
			"byteLength":64,
			"byteOffset":7028
		},
		{
			"buffer":0,
			"byteLength":8,
			"byteOffset":7092
		},
		{
			"buffer":0,
			"byteLength":24,
			"byteOffset":7100
		},
		{
			"buffer":0,
			"byteLength":164,
			"byteOffset":7124
		},
		{
			"buffer":0,
			"byteLength":656,
			"byteOffset":7288
		},
		{
			"buffer":0,
			"byteLength":24,
			"byteOffset":7944
		}
	],
	"buffers":[
		{
			"byteLength":7968,
			"uri":"NULLMODEL.bin"
		}
	]
}
